<?xml version="1.0" encoding="utf-8"?>
<!-- Generator: Adobe Illustrator 17.0.0, SVG Export Plug-In . SVG Version: 6.00 Build 0)  -->
<!DOCTYPE svg PUBLIC "-//W3C//DTD SVG 1.1//EN" "http://www.w3.org/Graphics/SVG/1.1/DTD/svg11.dtd">
<svg version="1.1" id="Capa_1" xmlns="http://www.w3.org/2000/svg" xmlns:xlink="http://www.w3.org/1999/xlink" x="0px" y="0px"
	 width="35px" height="35px" viewBox="0 0 35 35" enable-background="new 0 0 35 35" xml:space="preserve">
<g>
	<path fill="#3949AB" d="M17.5,35L17.5,35C7.835,35,0,27.165,0,17.5v0C0,7.835,7.835,0,17.5,0h0C27.165,0,35,7.835,35,17.5v0
		C35,27.165,27.165,35,17.5,35z"/>
	<path fill="#FFFFFF" d="M12.14,13.991h2.297v-2.082c0-0.919,0.025-2.335,0.74-3.212c0.753-0.929,1.787-1.561,3.565-1.561
		c2.897,0,4.118,0.386,4.118,0.386l-0.574,3.175c0,0-0.957-0.258-1.85-0.258c-0.893,0-1.693,0.299-1.693,1.132v2.421h3.663
		l-0.256,3.101h-3.407v10.772h-4.305V17.092H12.14V13.991z"/>
</g>
<g display="none">
	<path display="inline" fill="#42A5F5" d="M17.584,35h-0.168C7.798,35,0,27.203,0,17.584v-0.168C0,7.797,7.798,0,17.416,0h0.168
		C27.202,0,35,7.797,35,17.416v0.168C35,27.203,27.202,35,17.584,35z"/>
	<path display="inline" fill="#FFFFFF" d="M26.431,11.96c-0.657,0.292-1.364,0.489-2.105,0.577c0.757-0.454,1.338-1.171,1.611-2.027
		c-0.707,0.42-1.491,0.725-2.326,0.89c-0.669-0.713-1.622-1.158-2.676-1.158c-2.024,0-3.665,1.641-3.665,3.665
		c0,0.288,0.032,0.567,0.095,0.835c-3.045-0.152-5.745-1.611-7.553-3.829c-0.315,0.542-0.496,1.171-0.496,1.843
		c0,1.271,0.647,2.393,1.63,3.05c-0.6-0.019-1.165-0.184-1.659-0.458v0.046c0,1.775,1.263,3.257,2.939,3.593
		c-0.307,0.083-0.632,0.129-0.966,0.129c-0.236,0-0.466-0.024-0.689-0.067c0.466,1.456,1.819,2.515,3.423,2.546
		c-1.253,0.983-2.833,1.569-4.552,1.569c-0.295,0-0.587-0.018-0.873-0.051c1.622,1.039,3.548,1.646,5.618,1.646
		c6.74,0,10.426-5.583,10.426-10.426c0-0.158-0.004-0.316-0.01-0.475C25.318,13.341,25.939,12.696,26.431,11.96z"/>
</g>
</svg>
